<?xml version="1.0" encoding="utf-8"?>
<!-- Generator: Adobe Illustrator 26.1.0, SVG Export Plug-In . SVG Version: 6.00 Build 0)  -->
<svg version="1.1" id="Calque_1" xmlns="http://www.w3.org/2000/svg" xmlns:xlink="http://www.w3.org/1999/xlink" x="0px" y="0px"
	 viewBox="0 0 1200 400" style="enable-background:new 0 0 1200 400;" xml:space="preserve">
<style type="text/css">
	.st0{fill:none;stroke:#C2C2C2;stroke-miterlimit:10;}
	.st1{fill:none;stroke:#C2C2C2;stroke-miterlimit:10;stroke-dasharray:5.2449,5.2449;}
	.st2{fill:none;stroke:#C2C2C2;stroke-miterlimit:10;stroke-dasharray:5.0812,5.0812;}
	.st3{fill:none;stroke:#1D1D1B;stroke-linecap:round;stroke-miterlimit:10;}
	.st4{fill:#FFFFFF;stroke:#1D1D1B;stroke-linecap:round;stroke-miterlimit:10;}
	.st5{fill:#FF0E00;}
	.st6{font-family:'Helvetica';}
	.st7{font-size:8.0282px;}
	.st8{font-family:'Helvetica-Oblique';}
	.st9{fill:#36A9E1;}
	.st10{fill:none;stroke:#FF1400;stroke-width:0.5;stroke-linecap:round;stroke-miterlimit:10;}
	.st11{fill:none;}
	.st12{fill:#1D1D1B;}
</style>
<g>
	<g>
		<polyline class="st0" points="653.4,354.9 653.4,357.4 650.9,357.4 		"/>
		<line class="st1" x1="645.7" y1="357.4" x2="564.4" y2="357.4"/>
		<polyline class="st0" points="561.8,357.4 559.3,357.4 559.3,354.9 		"/>
		<line class="st2" x1="559.3" y1="349.8" x2="559.3" y2="57.6"/>
		<polyline class="st0" points="559.3,55.1 559.3,52.6 561.8,52.6 		"/>
		<line class="st1" x1="567" y1="52.6" x2="648.3" y2="52.6"/>
		<polyline class="st0" points="650.9,52.6 653.4,52.6 653.4,55.1 		"/>
		<line class="st2" x1="653.4" y1="60.1" x2="653.4" y2="352.3"/>
	</g>
</g>
<path class="st3" d="M559.3,52.6c0,0,19.7,51.5,19.7,152.4s-19.7,152.4-19.7,152.4"/>
<path class="st4" d="M653.4,52.6c0,0-19.7,51.5-19.7,152.4s19.7,152.4,19.7,152.4"/>
<circle class="st5" cx="606.3" cy="205" r="3.7"/>
<text transform="matrix(1 0 0 1 748.7532 177.8027)" class="st6 st7">Point de contrôle </text>
<text transform="matrix(1 0 0 1 811.2532 177.8027)" class="st6 st7">p</text>
<text transform="matrix(1 0 0 1 816.3531 177.8027)" class="st6 st7">our les 2 </text>
<text transform="matrix(1 0 0 1 748.7532 187.4027)" class="st8 st7">quadraticCurveTo()</text>
<text transform="matrix(1 0 0 1 817.9532 187.4027)" class="st6 st7"> </text>
<text transform="matrix(1 0 0 1 400.4983 198.8372)" class="st8 st7">lineTo()</text>
<text transform="matrix(1 0 0 1 400.4983 208.4372)" class="st6 st7">du 1er point au 2e point</text>
<text transform="matrix(1 0 0 1 600.0005 45.4341)" class="st8 st7">lineTo()</text>
<text transform="matrix(1 0 0 1 615.1255 372.207)" class="st8 st7">fill()</text>
<text transform="matrix(1 0 0 1 400.7153 364.751)" class="st6 st7">1er point +</text>
<text transform="matrix(1 0 0 1 400.7153 374.351)" class="st8 st7">quadraticCurveTo()</text>
<text transform="matrix(1 0 0 1 400.7153 384.051)" class="st6 st7">avec son point de contrôle</text>
<text transform="matrix(1 0 0 1 593.1868 352.0544)" class="st6 st7">L&apos;origine</text>
<text transform="matrix(1 0 0 1 706.9728 33.6001)" class="st6 st7">2e point </text>
<text transform="matrix(1 0 0 1 737.7728 33.6001)" class="st8 st7">quadraticCurveTo()</text>
<text transform="matrix(1 0 0 1 806.9728 33.6001)" class="st6 st7"> </text>
<text transform="matrix(1 0 0 1 706.9728 43.2001)" class="st6 st7">avec le même point de contrôle</text>
<line class="st3" x1="559.3" y1="52.6" x2="653.4" y2="52.6"/>
<line class="st3" x1="559.3" y1="357.4" x2="653.4" y2="357.4"/>
<circle class="st9" cx="653.4" cy="52.6" r="3.7"/>
<circle class="st9" cx="559.3" cy="357.4" r="3.7"/>
<line class="st10" x1="611.5" y1="357.4" x2="601.2" y2="357.4"/>
<line class="st10" x1="606.3" y1="362.5" x2="606.3" y2="352.2"/>
<g>
	<line class="st11" x1="744.7" y1="177.8" x2="611.5" y2="204.1"/>
	<g>
		<line class="st3" x1="744.7" y1="177.8" x2="617.4" y2="202.9"/>
		<g>
			<path class="st12" d="M611.5,204.1c2.6-1.6,5.7-4,7.5-6.3l-0.8,5l2.6,4.3C618.3,205.6,614.5,204.6,611.5,204.1z"/>
		</g>
	</g>
</g>
<g>
	<line class="st11" x1="488.9" y1="208.5" x2="575.8" y2="208.5"/>
	<g>
		<line class="st3" x1="488.9" y1="208.5" x2="569.7" y2="208.5"/>
		<g>
			<path class="st12" d="M575.8,208.5c-2.8,1.1-6.4,2.9-8.5,4.8l1.7-4.8l-1.7-4.8C569.4,205.6,572.9,207.4,575.8,208.5z"/>
		</g>
	</g>
</g>
<g>
	<line class="st11" x1="477.6" y1="368.5" x2="551.7" y2="359"/>
	<g>
		<line class="st3" x1="477.6" y1="368.5" x2="545.8" y2="359.8"/>
		<g>
			<path class="st12" d="M551.7,359c-2.7,1.4-6,3.6-7.9,5.8l1.1-4.9l-2.3-4.5C545.1,357,548.8,358.3,551.7,359z"/>
		</g>
	</g>
</g>
<g>
	<line class="st11" x1="631.5" y1="33.6" x2="669.2" y2="50"/>
	<g>
		<line class="st3" x1="702.4" y1="33.6" x2="663.7" y2="47.6"/>
		<g>
			<path class="st12" d="M669.2,50c-3-0.2-7,0.1-9.7,1l3.5-3.7l0.3-5C664.5,44.8,667.1,47.9,669.2,50z"/>
		</g>
	</g>
</g>
</svg>
