<?xml version="1.0" encoding="utf-8"?>
<!-- Generator: Adobe Illustrator 26.1.0, SVG Export Plug-In . SVG Version: 6.00 Build 0)  -->
<svg version="1.1" id="Calque_1" xmlns="http://www.w3.org/2000/svg" xmlns:xlink="http://www.w3.org/1999/xlink" x="0px" y="0px"
	 viewBox="0 0 1200 400" style="enable-background:new 0 0 1200 400;" xml:space="preserve">
<style type="text/css">
	.st0{fill:none;stroke:#FF1400;stroke-width:3;stroke-linecap:round;stroke-miterlimit:10;}
	.st1{fill:#FF1400;}
	.st2{fill:#FFFFFF;stroke:#1D1D1B;stroke-miterlimit:10;}
	.st3{fill:none;stroke:#C6C6C6;stroke-miterlimit:10;stroke-dasharray:3.0012,3.0012;}
	.st4{fill:none;stroke:#FF1400;stroke-linecap:round;stroke-miterlimit:10;}
	.st5{font-family:'Helvetica';}
	.st6{font-size:13.4547px;}
</style>
<g>
	<g>
		<line class="st0" x1="16.9" y1="357.4" x2="16.9" y2="134.6"/>
		<g>
			<path class="st1" d="M16.9,116.5c3.2,8.5,8.6,19.1,14.3,25.6L16.9,137l-14.3,5.2C8.4,135.6,13.7,125,16.9,116.5z"/>
		</g>
	</g>
</g>
<g>
	<g>
		<line class="st0" x1="1183.1" y1="339.3" x2="1183.1" y2="116.5"/>
		<g>
			<path class="st1" d="M1183.1,357.4c3.2-8.5,8.6-19.1,14.3-25.6l-14.3,5.2l-14.3-5.2C1174.5,338.3,1179.9,348.9,1183.1,357.4z"/>
		</g>
	</g>
</g>
<g>
	<g>
		<line class="st0" x1="58.2" y1="73.1" x2="1123.7" y2="73.1"/>
		<g>
			<path class="st1" d="M1141.8,73.1c-8.5,3.2-19.1,8.6-25.6,14.3l5.2-14.3l-5.2-14.3C1122.7,64.5,1133.3,69.9,1141.8,73.1z"/>
		</g>
	</g>
</g>
<rect x="58.2" y="123.5" class="st2" width="1083.6" height="233.9"/>
<g>
	<path class="st3" d="M98.3,123.5c0,11.1-9,20.1-20.1,20.1c-26.6-1.1-26.6-39.1,0-40.1C89.4,103.4,98.3,112.4,98.3,123.5L98.3,123.5
		z"/>
</g>
<g>
	<path class="st3" d="M138.5,123.5c0,11.1-9,20.1-20.1,20.1c-26.6-1.1-26.6-39.1,0-40.1C129.5,103.4,138.5,112.4,138.5,123.5
		L138.5,123.5z"/>
</g>
<g>
	<path class="st3" d="M178.6,123.5c0,11.1-9,20.1-20.1,20.1c-26.6-1.1-26.6-39.1,0-40.1C169.6,103.4,178.6,112.4,178.6,123.5
		L178.6,123.5z"/>
</g>
<g>
	<path class="st3" d="M218.7,123.5c0,11.1-9,20.1-20.1,20.1c-26.6-1.1-26.6-39.1,0-40.1C209.7,103.4,218.7,112.4,218.7,123.5
		L218.7,123.5z"/>
</g>
<g>
	<path class="st3" d="M258.9,123.5c0,11.1-9,20.1-20.1,20.1c-26.6-1.1-26.6-39.1,0-40.1C249.9,103.4,258.9,112.4,258.9,123.5
		L258.9,123.5z"/>
</g>
<g>
	<path class="st3" d="M299,123.5c0,11.1-9,20.1-20.1,20.1c-26.6-1.1-26.6-39.1,0-40.1C290,103.4,299,112.4,299,123.5L299,123.5z"/>
</g>
<g>
	<path class="st3" d="M339.1,123.5c0,11.1-9,20.1-20.1,20.1c-26.6-1.1-26.6-39.1,0-40.1C330.1,103.4,339.1,112.4,339.1,123.5
		L339.1,123.5z"/>
</g>
<g>
	<path class="st3" d="M379.3,123.5c0,11.1-9,20.1-20.1,20.1c-26.6-1.1-26.6-39.1,0-40.1C370.3,103.4,379.3,112.4,379.3,123.5
		L379.3,123.5z"/>
</g>
<g>
	<path class="st3" d="M419.4,123.5c0,11.1-9,20.1-20.1,20.1c-26.6-1.1-26.6-39.1,0-40.1C410.4,103.4,419.4,112.4,419.4,123.5
		L419.4,123.5z"/>
</g>
<g>
	<path class="st3" d="M459.5,123.5c0,11.1-9,20.1-20.1,20.1c-26.6-1.1-26.6-39.1,0-40.1C450.5,103.4,459.5,112.4,459.5,123.5
		L459.5,123.5z"/>
</g>
<g>
	<path class="st3" d="M499.7,123.5c0,11.1-9,20.1-20.1,20.1c-26.6-1.1-26.6-39.1,0-40.1C490.7,103.4,499.7,112.4,499.7,123.5
		L499.7,123.5z"/>
</g>
<g>
	<path class="st3" d="M539.8,123.5c0,11.1-9,20.1-20.1,20.1c-26.6-1.1-26.6-39.1,0-40.1C530.8,103.4,539.8,112.4,539.8,123.5
		L539.8,123.5z"/>
</g>
<g>
	<path class="st3" d="M579.9,123.5c0,11.1-9,20.1-20.1,20.1c-26.6-1.1-26.6-39.1,0-40.1C570.9,103.4,579.9,112.4,579.9,123.5
		L579.9,123.5z"/>
</g>
<g>
	<path class="st3" d="M620.1,123.5c0,11.1-9,20.1-20.1,20.1c-26.6-1.1-26.6-39.1,0-40.1C611.1,103.4,620.1,112.4,620.1,123.5
		L620.1,123.5z"/>
</g>
<g>
	<path class="st3" d="M660.2,123.5c0,11.1-9,20.1-20.1,20.1c-26.6-1.1-26.6-39.1,0-40.1C651.2,103.4,660.2,112.4,660.2,123.5
		L660.2,123.5z"/>
</g>
<g>
	<path class="st3" d="M700.3,123.5c0,11.1-9,20.1-20.1,20.1c-26.6-1.1-26.6-39.1,0-40.1C691.3,103.4,700.3,112.4,700.3,123.5
		L700.3,123.5z"/>
</g>
<g>
	<path class="st3" d="M740.5,123.5c0,11.1-9,20.1-20.1,20.1c-26.6-1.1-26.6-39.1,0-40.1C731.5,103.4,740.5,112.4,740.5,123.5
		L740.5,123.5z"/>
</g>
<g>
	<path class="st3" d="M780.6,123.5c0,11.1-9,20.1-20.1,20.1c-26.6-1.1-26.6-39.1,0-40.1C771.6,103.4,780.6,112.4,780.6,123.5
		L780.6,123.5z"/>
</g>
<g>
	<path class="st3" d="M820.7,123.5c0,11.1-9,20.1-20.1,20.1c-26.6-1.1-26.6-39.1,0-40.1C811.7,103.4,820.7,112.4,820.7,123.5
		L820.7,123.5z"/>
</g>
<g>
	<path class="st3" d="M860.9,123.5c0,11.1-9,20.1-20.1,20.1c-26.6-1.1-26.6-39.1,0-40.1C851.9,103.4,860.9,112.4,860.9,123.5
		L860.9,123.5z"/>
</g>
<g>
	<path class="st3" d="M901,123.5c0,11.1-9,20.1-20.1,20.1c-26.6-1.1-26.6-39.1,0-40.1C892,103.4,901,112.4,901,123.5L901,123.5z"/>
</g>
<g>
	<path class="st3" d="M941.1,123.5c0,11.1-9,20.1-20.1,20.1c-26.6-1.1-26.6-39.1,0-40.1C932.1,103.4,941.1,112.4,941.1,123.5
		L941.1,123.5z"/>
</g>
<g>
	<path class="st3" d="M981.3,123.5c0,11.1-9,20.1-20.1,20.1c-26.6-1.1-26.6-39.1,0-40.1C972.3,103.4,981.3,112.4,981.3,123.5
		L981.3,123.5z"/>
</g>
<g>
	<path class="st3" d="M1021.4,123.5c0,11.1-9,20.1-20.1,20.1c-26.6-1.1-26.6-39.1,0-40.1C1012.4,103.4,1021.4,112.4,1021.4,123.5
		L1021.4,123.5z"/>
</g>
<g>
	<path class="st3" d="M1061.5,123.5c0,11.1-9,20.1-20.1,20.1c-26.6-1.1-26.6-39.1,0-40.1C1052.5,103.4,1061.5,112.4,1061.5,123.5
		L1061.5,123.5z"/>
</g>
<g>
	<path class="st3" d="M1101.7,123.5c0,11.1-9,20.1-20.1,20.1c-26.6-1.1-26.6-39.1,0-40.1C1092.7,103.4,1101.7,112.4,1101.7,123.5
		L1101.7,123.5z"/>
</g>
<g>
	<path class="st3" d="M1141.8,123.5c0,11.1-9,20.1-20.1,20.1c-26.6-1.1-26.6-39.1,0-40.1C1132.8,103.4,1141.8,112.4,1141.8,123.5
		L1141.8,123.5z"/>
</g>
<path class="st2" d="M98.3,123.5c0,11.1-9,20.1-20.1,20.1s-20.1-9-20.1-20.1"/>
<g>
	<g>
		<path class="st4" d="M96.8,142.8c-2.5,8.2-10.2,14.1-19.2,14.1c-11.1,0-20.1-9-20.1-20.1"/>
		<g>
			<path class="st1" d="M97.8,136.8c-1.5,2.6-3.9,5.8-6.1,7.6l5-0.9l4.4,2.5C99.5,143.5,98.3,139.8,97.8,136.8z"/>
		</g>
	</g>
</g>
<path class="st2" d="M98.3,123.5c0-11.1,9-20.1,20.1-20.1s20.1,9,20.1,20.1"/>
<g>
	<g>
		<path class="st4" d="M98.3,103.4c0-11.1,9-20.1,20.1-20.1c9,0,16.6,5.9,19.2,14.1"/>
		<g>
			<path class="st1" d="M138.5,103.4c-1.5-2.6-3.9-5.8-6.1-7.6l5,0.9l4.4-2.5C140.2,96.7,139,100.4,138.5,103.4z"/>
		</g>
	</g>
</g>
<path class="st2" d="M178.6,123.5c0,11.1-9,20.1-20.1,20.1c-11.1,0-20.1-9-20.1-20.1"/>
<path class="st2" d="M178.6,123.5c0-11.1,9-20.1,20.1-20.1s20.1,9,20.1,20.1"/>
<path class="st2" d="M258.9,123.5c0,11.1-9,20.1-20.1,20.1c-11.1,0-20.1-9-20.1-20.1"/>
<path class="st2" d="M258.9,123.5c0-11.1,9-20.1,20.1-20.1c11.1,0,20.1,9,20.1,20.1"/>
<path class="st2" d="M339.1,123.5c0,11.1-9,20.1-20.1,20.1c-11.1,0-20.1-9-20.1-20.1"/>
<path class="st2" d="M339.1,123.5c0-11.1,9-20.1,20.1-20.1s20.1,9,20.1,20.1"/>
<path class="st2" d="M419.4,123.5c0,11.1-9,20.1-20.1,20.1s-20.1-9-20.1-20.1"/>
<path class="st2" d="M419.4,123.5c0-11.1,9-20.1,20.1-20.1s20.1,9,20.1,20.1"/>
<path class="st2" d="M499.7,123.5c0,11.1-9,20.1-20.1,20.1c-11.1,0-20.1-9-20.1-20.1"/>
<path class="st2" d="M499.7,123.5c0-11.1,9-20.1,20.1-20.1c11.1,0,20.1,9,20.1,20.1"/>
<path class="st2" d="M579.9,123.5c0,11.1-9,20.1-20.1,20.1c-11.1,0-20.1-9-20.1-20.1"/>
<path class="st2" d="M579.9,123.5c0-11.1,9-20.1,20.1-20.1s20.1,9,20.1,20.1"/>
<path class="st2" d="M660.2,123.5c0,11.1-9,20.1-20.1,20.1c-11.1,0-20.1-9-20.1-20.1"/>
<path class="st2" d="M660.2,123.5c0-11.1,9-20.1,20.1-20.1c11.1,0,20.1,9,20.1,20.1"/>
<path class="st2" d="M740.5,123.5c0,11.1-9,20.1-20.1,20.1c-11.1,0-20.1-9-20.1-20.1"/>
<path class="st2" d="M740.5,123.5c0-11.1,9-20.1,20.1-20.1c11.1,0,20.1,9,20.1,20.1"/>
<path class="st2" d="M820.7,123.5c0,11.1-9,20.1-20.1,20.1s-20.1-9-20.1-20.1"/>
<path class="st2" d="M820.7,123.5c0-11.1,9-20.1,20.1-20.1c11.1,0,20.1,9,20.1,20.1"/>
<path class="st2" d="M901,123.5c0,11.1-9,20.1-20.1,20.1c-11.1,0-20.1-9-20.1-20.1"/>
<path class="st2" d="M901,123.5c0-11.1,9-20.1,20.1-20.1c11.1,0,20.1,9,20.1,20.1"/>
<path class="st2" d="M981.3,123.5c0,11.1-9,20.1-20.1,20.1c-11.1,0-20.1-9-20.1-20.1"/>
<path class="st2" d="M981.3,123.5c0-11.1,9-20.1,20.1-20.1s20.1,9,20.1,20.1"/>
<path class="st2" d="M1061.5,123.5c0,11.1-9,20.1-20.1,20.1c-11.1,0-20.1-9-20.1-20.1"/>
<path class="st2" d="M1061.5,123.5c0-11.1,9-20.1,20.1-20.1c11.1,0,20.1,9,20.1,20.1"/>
<path class="st2" d="M1141.8,123.5c0,11.1-9,20.1-20.1,20.1s-20.1-9-20.1-20.1"/>
<text transform="matrix(1 0 0 1 71.6885 348.1924)" class="st1 st5 st6">Début</text>
<line class="st4" x1="67.6" y1="348" x2="48.8" y2="366.8"/>
<line class="st4" x1="67.6" y1="366.8" x2="48.8" y2="348"/>
</svg>
